<svg width="30" height="22" viewBox="0 0 30 22" fill="none" xmlns="http://www.w3.org/2000/svg">
<path d="M7.66667 21.6667C5.64445 21.6667 3.91689 20.9667 2.484 19.5667C1.05022 18.1667 0.333336 16.4556 0.333336 14.4333C0.333336 12.7 0.855558 11.1556 1.9 9.80001C2.94445 8.44445 4.31111 7.57779 6 7.20001C6.37778 5.60001 7.32223 4.07779 8.83334 2.63334C10.3444 1.1889 11.9556 0.466675 13.6667 0.466675C14.4 0.466675 15.028 0.727564 15.5507 1.24934C16.0724 1.77201 16.3333 2.40001 16.3333 3.13334V11.2L18.4667 9.13334L20.3333 11L15 16.3333L9.66667 11L11.5333 9.13334L13.6667 11.2V3.13334C11.9778 3.44445 10.6667 4.2609 9.73334 5.58267C8.8 6.90534 8.33334 8.26667 8.33334 9.66667H7.66667C6.37778 9.66667 5.27778 10.1222 4.36667 11.0333C3.45556 11.9445 3 13.0445 3 14.3333C3 15.6222 3.45556 16.7222 4.36667 17.6333C5.27778 18.5445 6.37778 19 7.66667 19H23.6667C24.6 19 25.3889 18.6778 26.0333 18.0333C26.6778 17.3889 27 16.6 27 15.6667C27 14.7333 26.6778 13.9445 26.0333 13.3C25.3889 12.6556 24.6 12.3333 23.6667 12.3333H21.6667V9.66667C21.6667 8.60001 21.4222 7.60534 20.9333 6.68267C20.4444 5.7609 19.8 4.97779 19 4.33334V1.23334C20.6444 2.01112 21.9444 3.16134 22.9 4.68401C23.8556 6.20579 24.3333 7.86667 24.3333 9.66667C25.8667 9.84445 27.1391 10.5053 28.1507 11.6493C29.1613 12.7942 29.6667 14.1333 29.6667 15.6667C29.6667 17.3333 29.0836 18.7502 27.9173 19.9173C26.7502 21.0836 25.3333 21.6667 23.6667 21.6667H7.66667Z" fill="black"/>
</svg>
